<svg width="252" height="28" viewBox="0 0 252 28" fill="none" xmlns="http://www.w3.org/2000/svg">
<path opacity="0.7" d="M20.0212 16.7206L10.4089 24V17.5699C11.7306 16.5993 17.9786 11.8676 17.9786 11.8676C17.9786 11.8676 21.3429 9.92647 20.3817 7.5C23.746 10.8971 22.4243 14.7794 20.0212 16.7206Z" fill="white"/>
<path d="M19.9628 7.22628L10.4089 0V6.38321C11.7226 7.34672 17.9326 12.0438 17.9326 12.0438C17.9326 12.0438 21.3959 14.0912 20.4405 16.5C23.7843 13.1277 22.3513 9.15329 19.9628 7.22628Z" fill="white"/>
<path opacity="0.7" d="M9.61231 16.7206L0 24V17.5699C1.32169 16.5993 7.5697 11.8676 7.5697 11.8676C7.5697 11.8676 10.934 9.92647 9.97277 7.5C13.3371 10.8971 12.0154 14.7794 9.61231 16.7206Z" fill="white"/>
<path d="M9.55387 7.22628L0 0V6.38321C1.31366 7.34672 7.52367 12.0438 7.52367 12.0438C7.52367 12.0438 10.9869 14.0912 10.0316 16.5C13.3754 13.1277 11.9423 9.15329 9.55387 7.22628Z" fill="white"/>
<path d="M34.6022 4.2736C33.9638 4.2736 33.4386 4.07296 33.0267 3.67168C32.6149 3.27041 32.4089 2.75878 32.4089 2.1368C32.4089 1.51482 32.6149 1.00319 33.0267 0.601916C33.4386 0.200639 33.9638 0 34.6022 0C35.2406 0 35.7657 0.200639 36.1776 0.601916C36.5895 1.00319 36.7954 1.51482 36.7954 2.1368C36.7954 2.75878 36.5895 3.27041 36.1776 3.67168C35.7657 4.07296 35.2406 4.2736 34.6022 4.2736ZM33.1194 21.7592C33.0164 21.7592 32.9238 21.7291 32.8414 21.6689C32.7796 21.5887 32.7487 21.4984 32.7487 21.3981V6.71136C32.7487 6.61104 32.7796 6.53078 32.8414 6.47059C32.9238 6.39033 33.0164 6.35021 33.1194 6.35021H35.9613C36.0643 6.35021 36.1467 6.39033 36.2085 6.47059C36.2908 6.53078 36.332 6.61104 36.332 6.71136V21.3981C36.332 21.4984 36.2908 21.5887 36.2085 21.6689C36.1467 21.7291 36.0643 21.7592 35.9613 21.7592H33.1194Z" fill="white"/>
<path d="M47.3872 6.13953C49.0553 6.13953 50.3836 6.62107 51.3721 7.58413C52.3812 8.5472 52.8857 9.86138 52.8857 11.5267V21.3981C52.8857 21.4984 52.8446 21.5887 52.7622 21.6689C52.7004 21.7291 52.618 21.7592 52.5151 21.7592H49.6731C49.5702 21.7592 49.4775 21.7291 49.3951 21.6689C49.3333 21.5887 49.3024 21.4984 49.3024 21.3981V12.249C49.3024 11.326 49.0347 10.5837 48.4993 10.0219C47.9639 9.44004 47.2534 9.14911 46.3678 9.14911C45.4823 9.14911 44.7615 9.43001 44.2055 9.99179C43.6701 10.5536 43.4024 11.2959 43.4024 12.2189V21.3981C43.4024 21.4984 43.3612 21.5887 43.2788 21.6689C43.217 21.7291 43.1346 21.7592 43.0317 21.7592H40.1897C40.0868 21.7592 39.9941 21.7291 39.9117 21.6689C39.8499 21.5887 39.819 21.4984 39.819 21.3981V6.74145C39.819 6.64113 39.8499 6.56088 39.9117 6.50068C39.9941 6.42043 40.0868 6.3803 40.1897 6.3803H43.0317C43.1346 6.3803 43.217 6.42043 43.2788 6.50068C43.3612 6.56088 43.4024 6.64113 43.4024 6.74145V7.70452C43.4024 7.76471 43.4229 7.80483 43.4641 7.8249C43.5053 7.84496 43.5362 7.8249 43.5568 7.76471C44.4011 6.68126 45.678 6.13953 47.3872 6.13953Z" fill="white"/>
<path d="M64.2209 6.35021C64.3239 6.35021 64.4062 6.39033 64.468 6.47059C64.5504 6.53078 64.5916 6.61104 64.5916 6.71136V9.08892C64.5916 9.18924 64.5504 9.27953 64.468 9.35978C64.4062 9.41997 64.3239 9.45007 64.2209 9.45007H61.1627C61.0598 9.45007 61.0083 9.50023 61.0083 9.60055V21.3981C61.0083 21.4984 60.9671 21.5887 60.8847 21.6689C60.8229 21.7291 60.7406 21.7592 60.6376 21.7592H57.7957C57.6927 21.7592 57.6 21.7291 57.5176 21.6689C57.4559 21.5887 57.425 21.4984 57.425 21.3981V9.60055C57.425 9.50023 57.3735 9.45007 57.2705 9.45007H55.3553C55.2523 9.45007 55.1597 9.41997 55.0773 9.35978C55.0155 9.27953 54.9846 9.18924 54.9846 9.08892V6.71136C54.9846 6.61104 55.0155 6.53078 55.0773 6.47059C55.1597 6.39033 55.2523 6.35021 55.3553 6.35021H57.2705C57.3735 6.35021 57.425 6.30005 57.425 6.19973V5.658C57.425 4.35385 57.6 3.35066 57.9501 2.64843C58.3002 1.92613 58.8768 1.4145 59.68 1.11354C60.4831 0.812586 61.6158 0.672139 63.0779 0.692203H64.1591C64.2621 0.692203 64.3445 0.73233 64.4062 0.812586C64.4886 0.872778 64.5298 0.953033 64.5298 1.05335V3.16006C64.5298 3.26037 64.4886 3.35066 64.4062 3.43092C64.3445 3.49111 64.2621 3.52121 64.1591 3.52121H63.356C62.4704 3.52121 61.8526 3.69175 61.5025 4.03283C61.173 4.37392 61.0083 4.9959 61.0083 5.89877V6.19973C61.0083 6.30005 61.0598 6.35021 61.1627 6.35021H64.2209ZM69.6576 4.2736C69.0192 4.2736 68.4941 4.07296 68.0822 3.67168C67.6703 3.27041 67.4644 2.75878 67.4644 2.1368C67.4644 1.51482 67.6703 1.00319 68.0822 0.601916C68.4941 0.200639 69.0192 0 69.6576 0C70.296 0 70.8212 0.200639 71.233 0.601916C71.6449 1.00319 71.8509 1.51482 71.8509 2.1368C71.8509 2.75878 71.6449 3.27041 71.233 3.67168C70.8212 4.07296 70.296 4.2736 69.6576 4.2736ZM68.1749 21.7592C68.0719 21.7592 67.9792 21.7291 67.8969 21.6689C67.8351 21.5887 67.8042 21.4984 67.8042 21.3981V6.71136C67.8042 6.61104 67.8351 6.53078 67.8969 6.47059C67.9792 6.39033 68.0719 6.35021 68.1749 6.35021H71.0168C71.1198 6.35021 71.2022 6.39033 71.2639 6.47059C71.3463 6.53078 71.3875 6.61104 71.3875 6.71136V21.3981C71.3875 21.4984 71.3463 21.5887 71.2639 21.6689C71.2022 21.7291 71.1198 21.7592 71.0168 21.7592H68.1749Z" fill="white"/>
<path d="M91.7709 6.13953C93.3566 6.13953 94.5922 6.61103 95.4778 7.55404C96.3839 8.47697 96.837 9.77109 96.837 11.4364V21.3981C96.837 21.4984 96.7958 21.5887 96.7134 21.6689C96.6516 21.7291 96.5692 21.7592 96.4663 21.7592H93.6552C93.5523 21.7592 93.4596 21.7291 93.3772 21.6689C93.3154 21.5887 93.2845 21.4984 93.2845 21.3981V12.1587C93.2845 11.2358 93.0271 10.5034 92.5123 9.9617C92.018 9.41997 91.3487 9.14911 90.5044 9.14911C89.6601 9.14911 88.9702 9.41997 88.4347 9.9617C87.8993 10.5034 87.6316 11.2257 87.6316 12.1286V21.3981C87.6316 21.4984 87.5904 21.5887 87.508 21.6689C87.4462 21.7291 87.3639 21.7592 87.2609 21.7592H84.4499C84.3469 21.7592 84.2542 21.7291 84.1718 21.6689C84.1101 21.5887 84.0792 21.4984 84.0792 21.3981V12.1587C84.0792 11.2358 83.8217 10.5034 83.3069 9.9617C82.7921 9.41997 82.1125 9.14911 81.2681 9.14911C80.4856 9.14911 79.8369 9.36981 79.322 9.81122C78.8278 10.2526 78.5395 10.8545 78.4571 11.617V21.3981C78.4571 21.4984 78.4159 21.5887 78.3335 21.6689C78.2717 21.7291 78.1894 21.7592 78.0864 21.7592H75.2445C75.1415 21.7592 75.0488 21.7291 74.9665 21.6689C74.9047 21.5887 74.8738 21.4984 74.8738 21.3981V6.74145C74.8738 6.64113 74.9047 6.56088 74.9665 6.50068C75.0488 6.42043 75.1415 6.3803 75.2445 6.3803H78.0864C78.1894 6.3803 78.2717 6.42043 78.3335 6.50068C78.4159 6.56088 78.4571 6.64113 78.4571 6.74145V7.73461C78.4571 7.7948 78.4777 7.83493 78.5189 7.85499C78.5601 7.87506 78.6012 7.85499 78.6424 7.7948C79.0955 7.23301 79.6515 6.82171 80.3105 6.56088C80.9901 6.27998 81.7418 6.13953 82.5655 6.13953C83.5746 6.13953 84.4602 6.34017 85.2221 6.74145C85.9841 7.14273 86.571 7.72458 86.9829 8.487C87.0447 8.56726 87.1167 8.56726 87.1991 8.487C87.6522 7.68445 88.2803 7.09257 89.0834 6.71136C89.8866 6.33014 90.7824 6.13953 91.7709 6.13953Z" fill="white"/>
<path d="M105.891 6.13953C107.188 6.13953 108.331 6.36024 109.32 6.80164C110.308 7.24305 111.07 7.85499 111.606 8.63748C112.141 9.39991 112.409 10.2727 112.409 11.2558V21.3981C112.409 21.4984 112.368 21.5887 112.285 21.6689C112.224 21.7291 112.141 21.7592 112.038 21.7592H109.196C109.093 21.7592 109.001 21.7291 108.918 21.6689C108.857 21.5887 108.826 21.4984 108.826 21.3981V20.435C108.826 20.3748 108.805 20.3447 108.764 20.3447C108.723 20.3247 108.681 20.3347 108.64 20.3748C107.631 21.4583 106.169 22 104.254 22C102.709 22 101.432 21.6188 100.423 20.8564C99.4349 20.0939 98.9407 18.9603 98.9407 17.4555C98.9407 15.8906 99.4967 14.6767 100.609 13.814C101.741 12.9311 103.327 12.4897 105.366 12.4897H108.671C108.774 12.4897 108.826 12.4396 108.826 12.3393V11.617C108.826 10.8345 108.589 10.2326 108.115 9.81122C107.641 9.36981 106.931 9.14911 105.984 9.14911C105.201 9.14911 104.563 9.28956 104.068 9.57045C103.595 9.83128 103.296 10.2025 103.173 10.684C103.111 10.9248 102.967 11.0251 102.74 10.985L99.7438 10.6238C99.6408 10.6037 99.5482 10.5736 99.4658 10.5335C99.404 10.4733 99.3834 10.4031 99.404 10.3228C99.5688 9.09895 100.238 8.09576 101.412 7.31327C102.606 6.53078 104.099 6.13953 105.891 6.13953ZM105.15 19.2312C106.159 19.2312 107.024 18.9704 107.744 18.4487C108.465 17.927 108.826 17.2649 108.826 16.4624V15.0479C108.826 14.9476 108.774 14.8974 108.671 14.8974H106.076C104.985 14.8974 104.12 15.098 103.482 15.4993C102.864 15.9006 102.555 16.4724 102.555 17.2148C102.555 17.8568 102.792 18.3584 103.265 18.7196C103.76 19.0606 104.388 19.2312 105.15 19.2312Z" fill="white"/>
<path d="M132.37 1.36C132.37 1.26 132.4 1.18 132.46 1.12C132.54 1.04 132.63 1 132.73 1H135.49C135.59 1 135.67 1.04 135.73 1.12C135.81 1.18 135.85 1.26 135.85 1.36V21.64C135.85 21.74 135.81 21.83 135.73 21.91C135.67 21.97 135.59 22 135.49 22H132.73C132.63 22 132.54 21.97 132.46 21.91C132.4 21.83 132.37 21.74 132.37 21.64V20.74C132.37 20.68 132.35 20.64 132.31 20.62C132.27 20.6 132.23 20.62 132.19 20.68C131.31 21.72 130.16 22.24 128.74 22.24C127.32 22.24 126.12 21.87 125.14 21.13C124.16 20.39 123.45 19.36 123.01 18.04C122.65 16.92 122.47 15.67 122.47 14.29C122.47 12.87 122.64 11.65 122.98 10.63C123.42 9.31 124.13 8.28 125.11 7.54C126.09 6.8 127.32 6.43 128.8 6.43C130.18 6.43 131.31 6.93 132.19 7.93C132.23 7.97 132.27 7.99 132.31 7.99C132.35 7.97 132.37 7.93 132.37 7.87V1.36ZM131.65 17.8C132.11 16.98 132.34 15.82 132.34 14.32C132.34 12.76 132.09 11.57 131.59 10.75C131.05 9.87 130.29 9.43 129.31 9.43C128.29 9.43 127.49 9.85 126.91 10.69C126.31 11.57 126.01 12.79 126.01 14.35C126.01 15.75 126.25 16.9 126.73 17.8C127.29 18.76 128.14 19.24 129.28 19.24C130.3 19.24 131.09 18.76 131.65 17.8Z" fill="white" fill-opacity="0.4"/>
<path d="M152.548 12.61C152.628 13.11 152.668 13.67 152.668 14.29L152.638 15.22C152.638 15.46 152.518 15.58 152.278 15.58H142.888C142.788 15.58 142.738 15.63 142.738 15.73C142.798 16.39 142.888 16.84 143.008 17.08C143.488 18.52 144.658 19.25 146.518 19.27C147.878 19.27 148.958 18.71 149.758 17.59C149.838 17.47 149.938 17.41 150.058 17.41C150.138 17.41 150.208 17.44 150.268 17.5L152.128 19.03C152.308 19.17 152.338 19.33 152.218 19.51C151.598 20.39 150.768 21.07 149.728 21.55C148.708 22.03 147.568 22.27 146.308 22.27C144.748 22.27 143.418 21.92 142.318 21.22C141.238 20.52 140.448 19.54 139.948 18.28C139.488 17.2 139.258 15.7 139.258 13.78C139.258 12.62 139.378 11.68 139.618 10.96C140.018 9.56 140.768 8.46 141.868 7.66C142.988 6.84 144.328 6.43 145.888 6.43C149.828 6.43 152.048 8.49 152.548 12.61ZM145.888 9.43C145.148 9.43 144.528 9.62 144.028 10C143.548 10.36 143.208 10.87 143.008 11.53C142.888 11.87 142.808 12.31 142.768 12.85C142.728 12.95 142.768 13 142.888 13H148.978C149.078 13 149.128 12.95 149.128 12.85C149.088 12.35 149.028 11.97 148.948 11.71C148.768 10.99 148.408 10.43 147.868 10.03C147.348 9.63 146.688 9.43 145.888 9.43Z" fill="white" fill-opacity="0.4"/>
<path d="M159.314 22C159.114 22 158.984 21.9 158.924 21.7L154.094 7.06C154.074 7.02 154.064 6.97 154.064 6.91C154.064 6.73 154.174 6.64 154.394 6.64H157.454C157.674 6.64 157.814 6.74 157.874 6.94L160.784 16.96C160.804 17.02 160.834 17.05 160.874 17.05C160.914 17.05 160.944 17.02 160.964 16.96L163.874 6.94C163.934 6.74 164.074 6.64 164.294 6.64L167.354 6.7C167.474 6.7 167.564 6.74 167.624 6.82C167.684 6.88 167.694 6.98 167.654 7.12L162.854 21.7C162.794 21.9 162.664 22 162.464 22H159.314Z" fill="white" fill-opacity="0.4"/>
<path d="M182.401 12.61C182.481 13.11 182.521 13.67 182.521 14.29L182.491 15.22C182.491 15.46 182.371 15.58 182.131 15.58H172.741C172.641 15.58 172.591 15.63 172.591 15.73C172.651 16.39 172.741 16.84 172.861 17.08C173.341 18.52 174.511 19.25 176.371 19.27C177.731 19.27 178.811 18.71 179.611 17.59C179.691 17.47 179.791 17.41 179.911 17.41C179.991 17.41 180.061 17.44 180.121 17.5L181.981 19.03C182.161 19.17 182.191 19.33 182.071 19.51C181.451 20.39 180.621 21.07 179.581 21.55C178.561 22.03 177.421 22.27 176.161 22.27C174.601 22.27 173.271 21.92 172.171 21.22C171.091 20.52 170.301 19.54 169.801 18.28C169.341 17.2 169.111 15.7 169.111 13.78C169.111 12.62 169.231 11.68 169.471 10.96C169.871 9.56 170.621 8.46 171.721 7.66C172.841 6.84 174.181 6.43 175.741 6.43C179.681 6.43 181.901 8.49 182.401 12.61ZM175.741 9.43C175.001 9.43 174.381 9.62 173.881 10C173.401 10.36 173.061 10.87 172.861 11.53C172.741 11.87 172.661 12.31 172.621 12.85C172.581 12.95 172.621 13 172.741 13H178.831C178.931 13 178.981 12.95 178.981 12.85C178.941 12.35 178.881 11.97 178.801 11.71C178.621 10.99 178.261 10.43 177.721 10.03C177.201 9.63 176.541 9.43 175.741 9.43Z" fill="white" fill-opacity="0.4"/>
<path d="M186.062 22C185.962 22 185.872 21.97 185.792 21.91C185.732 21.83 185.702 21.74 185.702 21.64V1.36C185.702 1.26 185.732 1.18 185.792 1.12C185.872 1.04 185.962 1 186.062 1H188.822C188.922 1 189.002 1.04 189.062 1.12C189.142 1.18 189.182 1.26 189.182 1.36V21.64C189.182 21.74 189.142 21.83 189.062 21.91C189.002 21.97 188.922 22 188.822 22H186.062Z" fill="white" fill-opacity="0.4"/>
<path d="M199.39 22.24C197.81 22.24 196.45 21.84 195.31 21.04C194.19 20.24 193.399 19.13 192.939 17.71C192.599 16.63 192.43 15.49 192.43 14.29C192.43 13.01 192.59 11.87 192.91 10.87C193.37 9.47 194.17 8.38 195.31 7.6C196.45 6.82 197.82 6.43 199.42 6.43C200.94 6.43 202.25 6.82 203.35 7.6C204.47 8.38 205.259 9.46 205.719 10.84C206.079 11.8 206.259 12.94 206.259 14.26C206.259 15.52 206.09 16.66 205.75 17.68C205.29 19.1 204.5 20.22 203.38 21.04C202.26 21.84 200.93 22.24 199.39 22.24ZM199.39 19.24C200.13 19.24 200.76 19.03 201.28 18.61C201.82 18.19 202.21 17.6 202.45 16.84C202.65 16.18 202.75 15.34 202.75 14.32C202.75 13.24 202.65 12.4 202.45 11.8C202.23 11.04 201.85 10.46 201.31 10.06C200.77 9.64 200.109 9.43 199.329 9.43C198.589 9.43 197.95 9.64 197.41 10.06C196.869 10.46 196.48 11.04 196.24 11.8C196.04 12.5 195.939 13.34 195.939 14.32C195.939 15.3 196.04 16.14 196.24 16.84C196.46 17.6 196.84 18.19 197.38 18.61C197.94 19.03 198.61 19.24 199.39 19.24Z" fill="white" fill-opacity="0.4"/>
<path d="M222.539 10.63C222.899 11.65 223.079 12.9 223.079 14.38C223.079 15.8 222.909 17.02 222.569 18.04C222.129 19.36 221.419 20.39 220.439 21.13C219.479 21.87 218.259 22.24 216.779 22.24C215.359 22.24 214.219 21.73 213.359 20.71C213.319 20.67 213.279 20.66 213.239 20.68C213.199 20.7 213.179 20.74 213.179 20.8V27.31C213.179 27.41 213.139 27.49 213.059 27.55C212.999 27.63 212.919 27.67 212.819 27.67H210.059C209.959 27.67 209.869 27.63 209.789 27.55C209.729 27.49 209.699 27.41 209.699 27.31V7.03C209.699 6.93 209.729 6.85 209.789 6.79C209.869 6.71 209.959 6.67 210.059 6.67H212.819C212.919 6.67 212.999 6.71 213.059 6.79C213.139 6.85 213.179 6.93 213.179 7.03V7.93C213.179 7.99 213.199 8.03 213.239 8.05C213.279 8.07 213.319 8.05 213.359 7.99C214.239 6.95 215.389 6.43 216.809 6.43C218.229 6.43 219.429 6.8 220.409 7.54C221.389 8.28 222.099 9.31 222.539 10.63ZM218.639 17.98C219.239 17.06 219.539 15.84 219.539 14.32C219.539 12.86 219.299 11.71 218.819 10.87C218.259 9.89 217.409 9.4 216.269 9.4C215.229 9.4 214.449 9.88 213.929 10.84C213.469 11.62 213.239 12.78 213.239 14.32C213.239 15.9 213.489 17.1 213.989 17.92C214.509 18.8 215.259 19.24 216.239 19.24C217.299 19.24 218.099 18.82 218.639 17.98Z" fill="white" fill-opacity="0.4"/>
<path d="M239.267 12.61C239.347 13.11 239.387 13.67 239.387 14.29L239.357 15.22C239.357 15.46 239.237 15.58 238.997 15.58H229.607C229.507 15.58 229.457 15.63 229.457 15.73C229.517 16.39 229.607 16.84 229.727 17.08C230.207 18.52 231.377 19.25 233.237 19.27C234.597 19.27 235.677 18.71 236.477 17.59C236.557 17.47 236.657 17.41 236.777 17.41C236.857 17.41 236.927 17.44 236.987 17.5L238.847 19.03C239.027 19.17 239.057 19.33 238.937 19.51C238.317 20.39 237.487 21.07 236.447 21.55C235.427 22.03 234.287 22.27 233.027 22.27C231.467 22.27 230.137 21.92 229.037 21.22C227.957 20.52 227.167 19.54 226.667 18.28C226.207 17.2 225.977 15.7 225.977 13.78C225.977 12.62 226.097 11.68 226.337 10.96C226.737 9.56 227.487 8.46 228.587 7.66C229.707 6.84 231.047 6.43 232.607 6.43C236.547 6.43 238.767 8.49 239.267 12.61ZM232.607 9.43C231.867 9.43 231.247 9.62 230.747 10C230.267 10.36 229.927 10.87 229.727 11.53C229.607 11.87 229.527 12.31 229.487 12.85C229.447 12.95 229.487 13 229.607 13H235.697C235.797 13 235.847 12.95 235.847 12.85C235.807 12.35 235.747 11.97 235.667 11.71C235.487 10.99 235.127 10.43 234.587 10.03C234.067 9.63 233.407 9.43 232.607 9.43Z" fill="white" fill-opacity="0.4"/>
<path d="M249.707 6.49C250.347 6.49 250.907 6.62 251.387 6.88C251.547 6.96 251.607 7.11 251.567 7.33L251.057 10.03C251.037 10.27 250.897 10.34 250.637 10.24C250.337 10.14 249.987 10.09 249.587 10.09C249.327 10.09 249.127 10.1 248.987 10.12C248.147 10.16 247.447 10.46 246.887 11.02C246.327 11.56 246.047 12.27 246.047 13.15V21.64C246.047 21.74 246.007 21.83 245.927 21.91C245.867 21.97 245.787 22 245.687 22H242.927C242.827 22 242.737 21.97 242.657 21.91C242.597 21.83 242.567 21.74 242.567 21.64V7.03C242.567 6.93 242.597 6.85 242.657 6.79C242.737 6.71 242.827 6.67 242.927 6.67H245.687C245.787 6.67 245.867 6.71 245.927 6.79C246.007 6.85 246.047 6.93 246.047 7.03V8.38C246.047 8.46 246.057 8.51 246.077 8.53C246.117 8.53 246.157 8.5 246.197 8.44C247.037 7.14 248.207 6.49 249.707 6.49Z" fill="white" fill-opacity="0.4"/>
</svg>
